<mxfile host="app.diagrams.net" modified="2021-07-19T22:27:25.408Z" agent="5.0 (Macintosh; Intel Mac OS X 10_15_7) AppleWebKit/537.36 (KHTML, like Gecko) Chrome/91.0.4472.114 Safari/537.36" etag="0MtPA6pUwY2V9BwlAFPY" version="14.9.0" type="github">
  <diagram id="4t_np2EbvWZ8o2hDPCFG" name="Page-1">
    <mxGraphModel dx="946" dy="513" grid="1" gridSize="10" guides="1" tooltips="1" connect="1" arrows="1" fold="1" page="1" pageScale="1" pageWidth="827" pageHeight="1169" math="0" shadow="0">
      <root>
        <mxCell id="0" />
        <mxCell id="1" parent="0" />
        <mxCell id="COQQ3bqbTmnxmAFUH2j1-2" value="" style="whiteSpace=wrap;html=1;aspect=fixed;" vertex="1" parent="1">
          <mxGeometry x="234" y="20" width="370" height="370" as="geometry" />
        </mxCell>
        <mxCell id="COQQ3bqbTmnxmAFUH2j1-8" style="edgeStyle=orthogonalEdgeStyle;rounded=0;orthogonalLoop=1;jettySize=auto;html=1;exitX=0.87;exitY=0.65;exitDx=0;exitDy=0;exitPerimeter=0;" edge="1" parent="1" source="COQQ3bqbTmnxmAFUH2j1-1" target="COQQ3bqbTmnxmAFUH2j1-5">
          <mxGeometry relative="1" as="geometry" />
        </mxCell>
        <object label="Client" placeholders="1" Client="" id="COQQ3bqbTmnxmAFUH2j1-1">
          <mxCell style="verticalLabelPosition=bottom;html=1;verticalAlign=top;align=center;strokeColor=none;fillColor=#00BEF2;shape=mxgraph.azure.user;" vertex="1" parent="1">
            <mxGeometry x="70" y="175" width="60" height="60" as="geometry" />
          </mxCell>
        </object>
        <mxCell id="COQQ3bqbTmnxmAFUH2j1-9" style="edgeStyle=orthogonalEdgeStyle;rounded=0;orthogonalLoop=1;jettySize=auto;html=1;" edge="1" parent="1" source="COQQ3bqbTmnxmAFUH2j1-5" target="COQQ3bqbTmnxmAFUH2j1-6">
          <mxGeometry relative="1" as="geometry" />
        </mxCell>
        <mxCell id="COQQ3bqbTmnxmAFUH2j1-5" value="front-end" style="aspect=fixed;html=1;points=[];align=center;image;fontSize=12;image=img/lib/azure2/app_services/App_Services.svg;pointerEvents=1;fillColor=#00BEF2;" vertex="1" parent="1">
          <mxGeometry x="260" y="37" width="64" height="64" as="geometry" />
        </mxCell>
        <mxCell id="COQQ3bqbTmnxmAFUH2j1-10" style="edgeStyle=orthogonalEdgeStyle;rounded=0;orthogonalLoop=1;jettySize=auto;html=1;" edge="1" parent="1" source="COQQ3bqbTmnxmAFUH2j1-6" target="COQQ3bqbTmnxmAFUH2j1-7">
          <mxGeometry relative="1" as="geometry" />
        </mxCell>
        <mxCell id="COQQ3bqbTmnxmAFUH2j1-6" value="back-end" style="aspect=fixed;html=1;points=[];align=center;image;fontSize=12;image=img/lib/azure2/app_services/App_Services.svg;pointerEvents=1;fillColor=#00BEF2;" vertex="1" parent="1">
          <mxGeometry x="520" y="37" width="64" height="64" as="geometry" />
        </mxCell>
        <mxCell id="COQQ3bqbTmnxmAFUH2j1-7" value="Banco De Dados" style="verticalLabelPosition=bottom;html=1;verticalAlign=top;align=center;strokeColor=none;fillColor=#00BEF2;shape=mxgraph.azure.database;pointerEvents=1;" vertex="1" parent="1">
          <mxGeometry x="533.25" y="270" width="37.5" height="50" as="geometry" />
        </mxCell>
      </root>
    </mxGraphModel>
  </diagram>
</mxfile>
